Coordinates
version=1
nRows=19
nColumns=34
inDegrees=yes

Units are S.I. units (second, meters, Newtons, ...)
If the header above contains a line with 'inDegrees', this indicates whether rotational values are in degrees (yes) or radians (no).

endheader
time	pelvis_tilt	pelvis_list	pelvis_rotation	pelvis_tx	pelvis_ty	pelvis_tz	hip_flexion_r	hip_adduction_r	hip_rotation_r	knee_angle_r	ankle_angle_r	subtalar_angle_r	mtp_angle_r	hip_flexion_l	hip_adduction_l	hip_rotation_l	knee_angle_l	ankle_angle_l	subtalar_angle_l	mtp_angle_l	lumbar_extension	lumbar_bending	lumbar_rotation	arm_flex_r	arm_add_r	arm_rot_r	elbow_flex_r	pro_sup_r	arm_flex_l	arm_add_l	arm_rot_l	elbow_flex_l	pro_sup_l
      3.11666670	     -5.44356420	      2.92034869	      4.40524530	      1.96874926	      0.94025146	     -0.17714388	     -1.62888450	     -9.15207557	    -15.32436624	     12.92827988	     -1.87149581	     -1.61354703	      0.00000000	      0.62271212	     -3.09524978	     -7.68754717	     12.48381929	     -1.58645346	      4.97844620	      0.00000000	      0.74081299	     -4.14884988	      7.84387534	     94.29269659	     -5.00226879	      2.21277159	     79.36623268	     98.98645119	    107.47132546	      5.24315758	     24.11503782	     77.07345163	     92.49080385
      3.13333330	     -5.74659180	      2.94843933	      4.79127579	      1.97431486	      0.94279896	     -0.17643025	     -2.43172247	     -8.78988652	    -15.63019562	     10.57892905	     -6.10199880	     -2.07936267	      0.00000000	      0.12268194	     -2.77335135	     -7.57608856	     10.52028263	     -5.14502027	      4.69011583	      0.00000000	      1.05526468	     -4.70244223	      8.30500532	    103.91693683	     -5.12753846	      2.07125139	     64.04733479	     98.72789753	    112.82006389	      7.23469271	     21.32610024	     69.41440064	     92.15620482
      3.15000000	     -6.15973189	      2.90720533	      5.00302464	      1.98086977	      0.94250314	     -0.17573172	     -2.82268331	     -8.54040099	    -15.79157070	      8.88862119	     -9.81527208	     -2.59036725	      0.00000000	     -0.14602263	     -2.56989641	     -7.57697510	      8.99078571	     -8.05143721	      4.28626491	      0.00000000	      1.43541400	     -5.21082097	      9.02240664	    113.60618722	     -4.79934024	      2.56601663	     48.77591809	     98.55738654	    118.94339726	      8.83271028	     20.38734907	     61.83756568	     91.86673545
      3.16666670	     -6.65355956	      2.84628096	      5.13453220	      1.98822217	      0.93989677	     -0.17457661	     -2.92531793	     -8.39294185	    -15.68647087	      7.77395093	    -13.06088518	     -3.38179535	      0.00000000	     -0.23153888	     -2.44050159	     -7.37048189	      7.89060482	    -10.43066247	      3.42077411	      0.00000000	      1.76115258	     -5.72269879	      9.88737772	    122.98051251	     -4.14511807	      3.98555580	     35.17518341	     98.35656025	    125.73262190	      9.98438272	     21.57145780	     55.02163571	     91.63913619
      3.18333330	     -7.22776262	      2.69216600	      5.29572225	      1.99607016	      0.93662783	     -0.17359875	     -2.98189289	     -8.17892264	    -15.49843447	      6.82826700	    -16.10901561	     -4.39277012	      0.00000000	     -0.17448091	     -2.46258480	     -6.97118509	      7.05049266	    -12.73098522	      2.21108577	      0.00000000	      2.09795831	     -6.02084905	     10.82068845	    132.52576991	     -4.68131867	     19.64019674	     22.78431290	     90.85990506	    132.37552046	     10.62518620	     25.22030632	     49.90765658	     87.41486789
      3.20000000	     -7.82799380	      2.72027435	      5.33348825	      2.00381320	      0.93501658	     -0.17333649	     -2.69507500	     -8.28092552	    -14.92292920	      6.66144463	    -18.13966860	     -5.17090852	      0.00000000	     -0.11399131	     -2.30153978	     -6.44988303	      6.34490752	    -14.06132684	      1.24732453	      0.00000000	      2.22126473	     -6.56798196	     11.18349493	    138.73079920	     -2.73810222	     19.82902321	     17.15607503	     89.25516273	    138.58461524	     11.70311086	     26.48089290	     45.01852583	     87.18289815
      3.21666670	     -8.46641553	      2.72804426	      5.45517618	      2.01216742	      0.93534801	     -0.17401055	     -2.46493696	     -8.42025212	    -15.04867087	      6.48752427	    -20.00991050	     -5.02956004	      0.00000000	     -0.00107301	     -2.21046179	     -6.37300805	      5.75734458	    -15.18986198	      1.09570183	      0.00000000	      2.69746059	     -7.02698281	     11.00334490	    143.54968777	     -1.64298448	     30.36234301	     13.39045190	     82.19887937	    144.06714281	     11.78092186	     31.86487969	     40.54243167	     85.64689302
      3.23333330	     -9.09962056	      2.57253833	      5.57836116	      2.02059273	      0.93674775	     -0.17396721	     -2.28454186	     -8.27605300	    -14.33765745	      6.21273512	    -22.37129191	     -6.08452820	      0.00000000	      0.11877200	     -2.29645449	     -5.72960949	      5.22938346	    -16.94679255	     -0.47075753	      0.00000000	      3.39476567	     -7.01890871	     10.95468199	    145.89842992	     -0.33433861	     30.81551392	     14.64980831	     81.22913997	    146.02199690	     11.66847030	     31.29555182	     41.08024477	     85.39337222
      3.25000000	     -9.44549074	      2.50823324	      5.65111968	      2.02877732	      0.93722589	     -0.17337620	     -2.38121143	     -8.21575247	    -13.65999100	      6.12378631	    -24.29628385	     -6.73193002	      0.00000000	     -0.13477294	     -2.32772592	     -4.88728478	      4.71885926	    -18.55117022	     -1.48607482	      0.00000000	      3.99270880	     -7.06754894	     11.10891920	    147.12067268	      0.78501531	     31.58823574	     16.93928635	     80.13490212	    147.04712217	     11.00809412	     32.28415570	     42.59496595	     85.41462004
      3.26666670	     -9.76390003	      2.42849225	      5.73397679	      2.03672572	      0.93643050	     -0.17337989	     -2.52209432	     -8.13882053	    -13.31627615	      6.11890996	    -25.54702994	     -6.87113539	      0.00000000	     -0.42167859	     -2.38189819	     -4.58724684	      4.28688634	    -19.74509739	     -2.15331782	      0.00000000	      4.63452968	     -7.02772427	     11.26614436	    147.72350686	      1.80535207	     32.10430272	     20.12216997	     79.31697911	    147.13498923	      9.73702403	     34.11949033	     45.49424436	     85.66639901
      3.28333330	    -10.03045620	      2.33922603	      5.80816913	      2.04437301	      0.93434535	     -0.17397853	     -2.67034751	     -8.06118053	    -12.87949821	      6.32101738	    -26.22874895	     -6.96728276	      0.00000000	     -0.76194517	     -2.42138331	     -4.29065721	      3.96823093	    -20.49310385	     -2.74002819	      0.00000000	      5.19509123	     -6.91022658	     11.35331577	    147.92657349	      2.97422041	     31.98449063	     22.90115795	     78.82921753	    146.92953451	      8.62618392	     35.81244270	     48.18639795	     85.97878431
      3.30000000	    -10.18386613	      2.22069876	      5.76005017	      2.05175445	      0.93238942	     -0.17404356	     -2.91251211	     -7.94093626	    -12.33032895	      6.59360396	    -26.40901202	     -6.90459124	      0.00000000	     -1.22945034	     -2.49297366	     -4.32536839	      3.71911454	    -21.04136616	     -3.31536774	      0.00000000	      5.44314868	     -6.72063642	     11.37425597	    148.16961681	      4.14955499	     31.57109614	     24.99824620	     78.74405715	    146.57168415	      7.90150385	     36.64816247	     50.20300220	     86.20459490
      3.31666670	    -10.56139257	      2.03385847	      5.82118423	      2.05911256	      0.93011649	     -0.17436694	     -2.95429539	     -7.78982093	    -11.90762835	      6.89140730	    -26.33930771	     -6.74090544	      0.00000000	     -1.38632949	     -2.58752940	     -3.97331425	      3.64855252	    -20.91914728	     -3.74355480	      0.00000000	      6.00651123	     -6.67062491	     10.82428379	    147.45164036	      5.03438982	     29.13380794	     27.24628647	     79.22216528	    145.38550702	      7.17116780	     37.37886704	     53.65765562	     86.77546205
      3.33333330	    -10.42661926	      1.91035135	      5.61173754	      2.06617592	      0.92852696	     -0.17570544	     -3.59338145	     -7.71526842	    -11.41048791	      7.04836126	    -26.07030574	     -6.44772991	      0.00000000	     -2.27429027	     -2.62595780	     -3.85359481	      3.41635635	    -21.09879114	     -4.46041870	      0.00000000	      5.75014524	     -6.54422179	     10.99410883	    147.03141052	      5.34953252	     28.43149487	     29.27905612	     79.76458502	    143.97730426	      6.87341868	     37.25400250	     56.73364631	     87.00594151
      3.35000000	    -10.81500206	      1.76477267	      5.58065424	      2.07275698	      0.92645102	     -0.17801971	     -3.61776479	     -7.71458067	    -11.01360898	      7.33021539	    -25.49340888	     -6.18341340	      0.00000000	     -2.26521674	     -2.66220492	     -3.73293289	      3.77270087	    -20.72409871	     -4.95835370	      0.00000000	      6.18783276	     -6.42735608	     10.90748667	    145.54299047	      5.61203006	     26.05371299	     31.78406816	     81.18717388	    141.12633932	      6.53406266	     35.69279760	     61.55080636	     87.51973874
      3.36666670	    -10.86783512	      1.62350259	      5.53000352	      2.07948170	      0.92392659	     -0.17981301	     -4.05666560	     -7.66214406	    -10.65413475	      7.47274970	    -24.85908428	     -5.90742029	      0.00000000	     -2.69097333	     -2.72802514	     -3.66785708	      4.04158211	    -20.34701620	     -5.50849821	      0.00000000	      6.13595965	     -6.31201469	     11.11753808	    143.91999837	      5.47426621	     24.03267932	     34.55179065	     82.66570020	    138.35910657	      6.49779217	     34.63750382	     65.95311681	     88.11591191
      3.38333330	    -11.06262783	      1.45428594	      5.51740697	      2.08652520	      0.92102866	     -0.18106040	     -4.27943345	     -7.55600362	    -10.35143551	      7.73297836	    -24.05174444	     -5.90947546	      0.00000000	     -2.88151899	     -2.84363559	     -3.67678335	      4.49752048	    -19.64207329	     -5.94137250	      0.00000000	      6.26423028	     -6.23517174	     11.46816302	    141.77108379	      5.43968339	     20.49844066	     37.49821171	     85.30705119	    135.27433188	      6.75401092	     33.46089986	     69.79451885	     89.29013545
      3.40000000	    -10.75327679	      1.31507631	      5.45070039	      2.09344331	      0.91891640	     -0.18239012	     -5.00773738	     -7.39948779	     -9.57359874	      8.09729998	    -23.14759542	     -5.69507478	      0.00000000	     -3.80231894	     -2.96449911	     -3.47258826	      4.66122261	    -18.82444033	     -6.23068401	      0.00000000	      5.46584025	     -6.18080296	     11.72204059	    140.33550070	      4.97546249	     19.79959162	     40.15625745	     86.04506737	    132.72971834	      6.47903729	     33.49296759	     73.28454097	     89.63856016
      3.41666670	    -11.13159139	      1.05666515	      5.56619438	      2.10020650	      0.91677088	     -0.18468037	     -4.65012961	     -7.23802759	     -9.12825552	      9.10473499	    -22.17425556	     -5.85690013	      0.00000000	     -3.63204974	     -3.17122379	     -3.37099758	      5.36276815	    -17.48421100	     -6.49543784	      0.00000000	      5.59285137	     -6.21637653	     11.42883227	    137.12892522	      4.68017197	     15.82267401	     45.08915887	     88.69205464	    128.82091457	      6.22119863	     32.33063493	     77.23032455	     90.99872923
